HIERARCHY
ROOT Hips
{
	OFFSET 0.00000 0.00000 0.00000
	CHANNELS 6 Xposition Yposition Zposition Zrotation Yrotation Xrotation 
	JOINT LHipJoint
	{
		OFFSET 0 0 0
		CHANNELS 3 Zrotation Yrotation Xrotation
		JOINT LeftUpLeg
		{
			OFFSET 1.58895 -1.83665 0.71753
			CHANNELS 3 Zrotation Yrotation Xrotation
			JOINT LeftLeg
			{
				OFFSET 2.50528 -6.88321 0.00000
				CHANNELS 3 Zrotation Yrotation Xrotation
				JOINT LeftFoot
				{
					OFFSET 2.63244 -7.23257 0.00000
					CHANNELS 3 Zrotation Yrotation Xrotation
					JOINT LeftToeBase
					{
						OFFSET 0.23691 -0.65090 1.72750
						CHANNELS 3 Zrotation Yrotation Xrotation
						End Site
						{
							OFFSET 0.00000 -0.00000 0.92561
						}
					}
				}
			}
		}
	}
	JOINT RHipJoint
	{
		OFFSET 0 0 0
		CHANNELS 3 Zrotation Yrotation Xrotation
		JOINT RightUpLeg
		{
			OFFSET -1.51435 -1.83665 0.71753
			CHANNELS 3 Zrotation Yrotation Xrotation
			JOINT RightLeg
			{
				OFFSET -2.54551 -6.99375 0.00000
				CHANNELS 3 Zrotation Yrotation Xrotation
				JOINT RightFoot
				{
					OFFSET -2.66027 -7.30903 0.00000
					CHANNELS 3 Zrotation Yrotation Xrotation
					JOINT RightToeBase
					{
						OFFSET -0.22981 -0.63138 2.03959
						CHANNELS 3 Zrotation Yrotation Xrotation
						End Site
						{
							OFFSET -0.00000 -0.00000 1.07060
						}
					}
				}
			}
		}
	}
	JOINT LowerBack
	{
		OFFSET 0 0 0
		CHANNELS 3 Zrotation Yrotation Xrotation
		JOINT Spine
		{
			OFFSET -0.02651 1.86275 -0.11152
			CHANNELS 3 Zrotation Yrotation Xrotation
			JOINT Spine1
			{
				OFFSET 0.01019 1.86224 0.04087
				CHANNELS 3 Zrotation Yrotation Xrotation
				JOINT Neck
				{
					OFFSET 0 0 0
					CHANNELS 3 Zrotation Yrotation Xrotation
					JOINT Neck1
					{
						OFFSET -0.01926 1.80512 0.08867
						CHANNELS 3 Zrotation Yrotation Xrotation
						JOINT Head
						{
							OFFSET 0.05516 1.76451 -0.38475
							CHANNELS 3 Zrotation Yrotation Xrotation
							End Site
							{
								OFFSET 0.01592 1.82587 -0.14001
							}
						}
					}
				}
				JOINT LeftShoulder
				{
					OFFSET 0 0 0
					CHANNELS 3 Zrotation Yrotation Xrotation
					JOINT LeftArm
					{
						OFFSET 3.47116 1.51376 0.14491
						CHANNELS 3 Zrotation Yrotation Xrotation
						JOINT LeftForeArm
						{
							OFFSET 4.78095 -0.00000 0.00000
							CHANNELS 3 Zrotation Yrotation Xrotation
							JOINT LeftHand
							{
								OFFSET 3.58615 -0.00000 -0.00000
								CHANNELS 3 Zrotation Yrotation Xrotation
								JOINT LeftFingerBase
								{
									OFFSET 0 0 0
									CHANNELS 3 Zrotation Yrotation Xrotation
									JOINT LeftHandIndex1
									{
										OFFSET 0.65981 -0.00000 0.00000
										CHANNELS 3 Zrotation Yrotation Xrotation
										End Site
										{
											OFFSET 0.53196 -0.00000 0.00000
										}
									}
								}
								JOINT LThumb
								{
									OFFSET 0 0 0
									CHANNELS 3 Zrotation Yrotation Xrotation
									End Site
									{
										OFFSET 0.54008 -0.00000 0.54008
									}
								}
							}
						}
					}
				}
				JOINT RightShoulder
				{
					OFFSET 0 0 0
					CHANNELS 3 Zrotation Yrotation Xrotation
					JOINT RightArm
					{
						OFFSET -3.31725 1.61216 0.35156
						CHANNELS 3 Zrotation Yrotation Xrotation
						JOINT RightForeArm
						{
							OFFSET -4.48913 -0.00000 0.00000
							CHANNELS 3 Zrotation Yrotation Xrotation
							JOINT RightHand
							{
								OFFSET -3.70510 -0.00000 0.00000
								CHANNELS 3 Zrotation Yrotation Xrotation
								JOINT RightFingerBase
								{
									OFFSET 0 0 0
									CHANNELS 3 Zrotation Yrotation Xrotation
									JOINT RightHandIndex1
									{
										OFFSET -0.44914 -0.00000 0.00000
										CHANNELS 3 Zrotation Yrotation Xrotation
										End Site
										{
											OFFSET -0.36211 -0.00000 0.00000
										}
									}
								}
								JOINT RThumb
								{
									OFFSET 0 0 0
									CHANNELS 3 Zrotation Yrotation Xrotation
									End Site
									{
										OFFSET -0.36763 -0.00000 0.36763
									}
								}
							}
						}
					}
				}
			}
		}
	}
}
MOTION
Frames: 10
Frame Time: .0083333
-0.639 18.6658 5.8635 0 0 0 0 0 0 -21 0 0 0 0 0 0 0 0 0 0 0 0 0 0 21 0 0 0 0 0 0 0 0 0 0 0 0 0 0 0 0 0 0 0 0 0 0 -16 0 0 21 0 0 11 0 0 0 -8 0 0 0 0 0 0 0 0 0 0 0 0 0 0 0 0 0 0 0 0 8 0 0 0 0 0 0 0 0 0 0 0 0 0 0 0 0 0
-0.6390 18.6658 5.8635 -1.5656 -5.2090 2.1285 0.0000 0.0000 0.0000 -14.3210 -9.6772 1.1831 1.1799 6.8940 19.4017 2.2945 9.2170 -33.0823 7.6096 -15.8244 -51.1439 0.0000 0.0000 0.0000 0.0000 0.0000 0.0000 0.0000 0.0000 0.0000 -0.0000 -0.0000 0.0000 -0.0000 -0.0000 0.0000 0.1508 1.5648 -0.8888 0.0689 2.0888 -2.7093 -0.0370 1.0410 -2.2761 -1.5618 -1.5359 -9.3755 2.9241 -2.6219 25.2332 0.9919 -1.0578 9.5514 -0.0000 -0.0000 0.0000 -92.8772 13.6567 25.1373 21.0974 -31.9419 -6.1014 -0.0000 -0.0000 8.4854 3.7903 -22.5433 -1.4549 -7.1250 0.0000 -0.0000 -15.6777 8.0574 13.8691 -0.0000 -0.0000 0.0000 92.4413 -20.6245 20.4003 -25.8666 37.0767 -8.8071 0.0000 0.0000 20.9387 -9.7526 -32.7660 5.3145 7.1250 -0.0000 -0.0000 26.4966 -61.1460 -10.8503
-0.6389 18.6660 5.8647 -1.5981 -5.2151 2.1361 0.0000 0.0000 0.0000 -14.3004 -9.7364 1.2135 1.1804 6.8955 19.4061 2.3145 9.2080 -33.1915 7.5979 -15.8154 -51.1010 0.0000 0.0000 0.0000 0.0000 0.0000 0.0000 0.0000 0.0000 0.0000 -0.0000 -0.0000 0.0000 -0.0000 -0.0000 0.0000 0.1729 1.5695 -0.8914 0.0819 2.0954 -2.6904 -0.0357 1.0440 -2.2548 -1.5318 -1.5297 -9.4383 2.8952 -2.6105 25.2156 0.9776 -1.0522 9.5560 0.0000 0.0000 0.0000 -92.8544 13.6685 25.1840 21.0952 -31.9393 -6.1002 -0.0000 -0.0000 8.4705 3.8386 -22.6243 -1.4785 -7.1250 0.0000 -0.0000 -15.6465 7.9761 13.8653 0.0000 0.0000 0.0000 92.4340 -20.6481 20.3603 -25.8421 37.0524 -8.7923 0.0000 0.0000 21.0269 -9.8098 -32.8308 5.3554 7.1250 -0.0000 -0.0000 26.4980 -61.2170 -10.8958
-0.6389 18.6656 5.8660 -1.6180 -5.2243 2.1300 0.0000 0.0000 0.0000 -14.3051 -9.8378 1.2717 1.1812 6.8977 19.4127 2.3324 9.2493 -33.3193 7.5997 -15.8168 -51.1077 0.0000 0.0000 0.0000 0.0000 0.0000 0.0000 0.0000 0.0000 0.0000 -0.0000 -0.0000 0.0000 -0.0000 -0.0000 0.0000 0.1890 1.5769 -0.8763 0.0755 2.1052 -2.6809 -0.0516 1.0485 -2.2527 -1.4782 -1.5354 -9.4563 2.8882 -2.6269 25.2036 0.9640 -1.0555 9.5549 0.0000 -0.0000 0.0000 -92.8059 13.6978 25.1991 21.0973 -31.9418 -6.1013 -0.0000 -0.0000 8.4859 3.8640 -22.6177 -1.4880 -7.1250 0.0000 -0.0000 -15.6311 7.9806 13.8490 0.0000 -0.0000 0.0000 92.4285 -20.7160 20.3862 -25.8627 37.0728 -8.8047 0.0000 0.0000 21.0200 -9.6365 -32.8998 5.2693 7.1250 -0.0000 -0.0000 26.7427 -61.2355 -11.0166
-0.6386 18.6653 5.8664 -1.6278 -5.2158 2.1335 0.0000 0.0000 0.0000 -14.3069 -9.8970 1.2827 1.1817 6.8990 19.4164 2.3237 9.3226 -33.3154 7.6189 -15.8316 -51.1779 0.0000 0.0000 0.0000 0.0000 0.0000 0.0000 0.0000 0.0000 0.0000 -0.0000 -0.0000 0.0000 -0.0000 -0.0000 0.0000 0.1934 1.5758 -0.8653 0.0763 2.1038 -2.6797 -0.0535 1.0477 -2.2576 -1.4773 -1.5532 -9.4218 2.9101 -2.6568 25.1606 0.9682 -1.0677 9.5341 0.0000 -0.0000 0.0000 -92.7790 13.7340 25.2153 21.0969 -31.9413 -6.1011 -0.0000 -0.0000 8.4776 3.8799 -22.6012 -1.4931 -7.1250 0.0000 -0.0000 -15.6217 7.9953 13.8353 0.0000 -0.0000 0.0000 92.3747 -20.7992 20.4743 -25.8902 37.1001 -8.8213 0.0000 0.0000 20.9563 -9.4554 -32.9184 5.1715 7.1250 -0.0000 -0.0000 26.9478 -61.2077 -11.0903
-0.6378 18.6652 5.8662 -1.6109 -5.2067 2.1447 0.0000 0.0000 0.0000 -14.3303 -9.9105 1.2707 1.1816 6.8986 19.4155 2.3178 9.3245 -33.2826 7.6149 -15.8286 -51.1634 0.0000 0.0000 0.0000 0.0000 0.0000 0.0000 0.0000 0.0000 0.0000 -0.0000 -0.0000 0.0000 -0.0000 -0.0000 0.0000 0.1919 1.5708 -0.8600 0.0661 2.0970 -2.6739 -0.0631 1.0442 -2.2542 -1.5202 -1.5619 -9.4262 2.9797 -2.6782 25.1512 0.9972 -1.0742 9.5338 -0.0000 -0.0000 0.0000 -92.7604 13.7366 25.1903 21.0771 -31.9182 -6.0906 -0.0000 -0.0000 8.4831 3.8662 -22.6304 -1.4896 -7.1250 0.0000 -0.0000 -15.6295 7.9682 13.8515 -0.0000 -0.0000 0.0000 92.3262 -20.8226 20.4987 -25.8661 37.0762 -8.8068 0.0000 0.0000 20.9719 -9.5502 -32.6735 5.1897 7.1250 -0.0000 -0.0000 26.6196 -61.0155 -10.8219
-0.6374 18.6647 5.8677 -1.6016 -5.2541 2.1525 0.0000 0.0000 0.0000 -14.3475 -9.8781 1.2709 1.1813 6.8979 19.4132 2.3204 9.3172 -33.2933 7.6067 -15.8222 -51.1333 0.0000 0.0000 0.0000 0.0000 0.0000 0.0000 0.0000 0.0000 0.0000 -0.0000 -0.0000 0.0000 -0.0000 -0.0000 0.0000 0.2064 1.5863 -0.8881 0.0477 2.1173 -2.6405 -0.0888 1.0540 -2.2028 -1.4950 -1.5624 -9.5082 2.9739 -2.6826 25.1802 0.9899 -1.0735 9.5594 -0.0000 -0.0000 0.0000 -92.7218 13.6995 25.1609 21.0723 -31.9127 -6.0881 -0.0000 -0.0000 8.4901 3.8415 -22.6561 -1.4816 -7.1250 0.0000 -0.0000 -15.6441 7.9453 13.8728 -0.0000 -0.0000 0.0000 92.3245 -20.7628 20.4325 -25.8229 37.0333 -8.7808 0.0000 0.0000 20.9981 -9.7709 -32.5187 5.2891 7.1250 -0.0000 -0.0000 26.2478 -60.9323 -10.6062
-0.6375 18.6643 5.8693 -1.6080 -5.2962 2.1671 0.0000 0.0000 0.0000 -14.3432 -9.8689 1.2717 1.1808 6.8966 19.4093 2.3330 9.2667 -33.3337 7.5773 -15.7994 -51.0254 0.0000 0.0000 0.0000 0.0000 0.0000 0.0000 0.0000 0.0000 0.0000 -0.0000 -0.0000 0.0000 -0.0000 -0.0000 0.0000 0.2142 1.5993 -0.9335 0.0424 2.1342 -2.6066 -0.0967 1.0623 -2.1420 -1.4378 -1.5746 -9.5316 2.8874 -2.6882 25.1533 0.9493 -1.0801 9.5525 0.0000 -0.0000 0.0000 -92.6645 13.6898 25.2089 21.1136 -31.9608 -6.1100 -0.0000 -0.0000 8.4723 3.8416 -22.5870 -1.4774 -7.1250 0.0000 -0.0000 -15.6455 8.0119 13.8528 0.0000 -0.0000 0.0000 92.3245 -20.7198 20.3648 -25.8336 37.0439 -8.7872 0.0000 0.0000 20.9941 -9.0432 -32.6558 4.9085 7.1250 -0.0000 -0.0000 27.1264 -60.8777 -10.9562
-0.6372 18.6651 5.8681 -1.5945 -5.2474 2.1731 0.0000 0.0000 0.0000 -14.3611 -9.9297 1.2747 1.1799 6.8940 19.4016 2.3328 9.2947 -33.3498 7.5784 -15.8003 -51.0296 0.0000 0.0000 0.0000 0.0000 0.0000 0.0000 0.0000 0.0000 0.0000 -0.0000 -0.0000 0.0000 -0.0000 -0.0000 0.0000 0.1936 1.5844 -0.9019 0.0379 2.1144 -2.6062 -0.0906 1.0528 -2.1598 -1.4536 -1.6020 -9.4353 2.8843 -2.7206 25.0528 0.9476 -1.0988 9.4995 -0.0000 0.0000 0.0000 -92.6121 13.7079 25.2395 21.1346 -31.9852 -6.1211 -0.0000 -0.0000 8.4978 3.8002 -22.5447 -1.4588 -7.1250 0.0000 -0.0000 -15.6717 8.0554 13.8639 -0.0000 0.0000 0.0000 92.3169 -20.7604 20.3177 -25.8896 37.0995 -8.8210 0.0000 0.0000 21.0051 -7.4229 -32.7746 4.0342 7.1250 -0.0000 -0.0000 28.8957 -60.5932 -11.5424
-0.6370 18.6658 5.8671 -1.5702 -5.2025 2.1543 0.0000 0.0000 0.0000 -14.3975 -9.9780 1.3053 1.1788 6.8908 19.3922 2.3192 9.3736 -33.3214 7.5979 -15.8154 -51.1010 0.0000 0.0000 0.0000 0.0000 0.0000 0.0000 0.0000 0.0000 0.0000 -0.0000 -0.0000 0.0000 -0.0000 -0.0000 0.0000 0.1807 1.5720 -0.8587 0.0193 2.0975 -2.5969 -0.1035 1.0444 -2.1743 -1.4936 -1.6246 -9.2822 2.9453 -2.7557 24.8824 0.9721 -1.1153 9.4124 -0.0000 -0.0000 0.0000 -92.5656 13.6940 25.1924 21.1235 -31.9722 -6.1152 -0.0000 -0.0000 8.5261 3.7293 -22.6228 -1.4363 -7.1250 0.0000 -0.0000 -15.7133 7.9853 13.9265 -0.0000 -0.0000 0.0000 92.3289 -20.7965 20.2865 -25.9194 37.1290 -8.8390 0.0000 0.0000 21.0078 -6.7214 -32.7959 3.6524 7.1250 -0.0000 -0.0000 29.6270 -60.4450 -11.7595
